<svg id="Capa_1" enable-background="new 0 0 512 512" height="512" viewBox="0 0 512 512" width="512" xmlns="http://www.w3.org/2000/svg"><g><g><path d="m502 256c0-135.98-110.04-246-246-246-135.98 0-246 110.04-246 246 0 52.07 16.14 100.33 43.68 140.07l94.69 81.23c32.5 15.83 69.02 24.7 107.63 24.7 39.57 0 76.95-9.32 110.06-25.89v-.11c-.02 0-.04 0-.06 0l92.32-79.93c27.55-39.74 43.68-88.01 43.68-140.07z" fill="#ff7d97"/><path d="m458.32 396.07c21.01 1.2 37.68 18.62 37.68 39.93 0 22.09-17.91 40-40 40-1.8 0-3.52-.3-5.26-.53-6.85 12.19-19.76 20.53-34.74 20.53-16.17 0-30.01-9.64-36.32-23.44-4.1 2.11-8.68 3.43-13.62 3.44-.02 0-.04 0-.06 0-16.57 0-30-13.43-30-30 0-10.24 5.15-19.26 12.98-24.68-17.66-16.44-31.06-37.63-37.23-62.33-19.474-77.884-15.077-60.298-15.75-62.99 15.65 39.11 45.8 69.28 82.71 85.84 5.73-15.08 20.2-25.84 37.29-25.84 22.09 0 40 17.91 40 40 .78 0 1.55.02 2.32.07z" fill="#fff5f5"/><path d="m378.82 168.27c10.52 9.17 17.18 22.67 17.18 37.73 0 27.61-22.39 50-50 50-20.96 0-38.91-12.9-46.34-31.19z" fill="#ffed99"/><path d="m216 296c-.673 2.692 3.724-14.894-15.75 62.99-6.17 24.7-19.57 45.89-37.23 62.33 7.83 5.42 12.98 14.44 12.98 24.68 0 15.53-11.8 28.31-26.93 29.85-1.01.1-2.03.15-3.07.15-4.96 0-9.56-1.32-13.68-3.44-6.31 13.8-20.15 23.44-36.32 23.44-14.98 0-27.89-8.34-34.74-20.53-1.74.23-3.46.53-5.26.53-22.09 0-40-17.91-40-40 0-21.31 16.67-38.73 37.68-39.93.77-.05 1.54-.07 2.32-.07 0-22.09 17.91-40 40-40 17.09 0 31.56 10.76 37.29 25.84 36.91-16.56 67.06-46.73 82.71-85.84z" fill="#fff5f5"/><path d="m133.18 168.27 79.16 56.54c-7.43 18.29-25.38 31.19-46.34 31.19-27.61 0-50-22.39-50-50 0-15.06 6.66-28.56 17.18-37.73z" fill="#ffed99"/></g><g><path d="m138.992 160.132c-3.769-2.691-8.893-2.444-12.383.6-13.097 11.417-20.609 27.917-20.609 45.268 0 33.084 26.916 60 60 60 24.543 0 46.369-14.691 55.604-37.427 1.742-4.288.314-9.211-3.453-11.901zm27.008 85.868c-22.056 0-40-17.944-40-40 0-8.96 3.007-17.582 8.422-24.555l65.063 46.472c-7.29 11.182-19.749 18.083-33.485 18.083z"/><path d="m346 266c33.084 0 60-26.916 60-60 0-17.351-7.512-33.851-20.609-45.269-3.491-3.043-8.614-3.289-12.383-.6l-79.16 56.54c-3.767 2.69-5.195 7.613-3.453 11.901 9.236 22.737 31.062 37.428 55.605 37.428zm31.578-84.555c5.415 6.973 8.422 15.595 8.422 24.555 0 22.056-17.944 40-40 40-13.736 0-26.195-6.901-33.485-18.083z"/><path d="m224.137 184.082c3.21-4.494 2.169-10.74-2.325-13.95l-76.75-54.819c-4.494-3.209-10.74-2.17-13.949 2.325-3.21 4.494-2.169 10.74 2.325 13.95l76.75 54.819c4.484 3.202 10.732 2.181 13.949-2.325z"/><path d="m301.812 186.407 76.75-54.819c4.495-3.21 5.536-9.456 2.325-13.95s-9.457-5.535-13.949-2.325l-76.75 54.819c-4.495 3.21-5.536 9.456-2.325 13.95 3.22 4.508 9.468 5.526 13.949 2.325z"/><circle cx="430" cy="82" r="10"/><path d="m453.096 108.344c-4.549 3.132-5.698 9.358-2.565 13.907 27.129 39.403 41.469 85.653 41.469 133.749 0 41.696-10.776 81.973-31.305 117.622-8.226-16.363-25.166-27.622-44.695-27.622-16.89 0-32.555 8.76-41.677 22.596-31.515-16.532-55.842-43.332-69.039-76.311-1.954-4.884-7.357-7.421-12.361-5.8-5.005 1.618-7.9 6.837-6.625 11.94l8.139 32.55c-12.468-3.301-25.333-4.975-38.437-4.975s-25.969 1.674-38.437 4.976l8.139-32.55c1.275-5.104-1.62-10.322-6.625-11.94-5.003-1.618-10.407.916-12.361 5.8-13.197 32.979-37.524 59.778-69.039 76.311-9.122-13.837-24.787-22.597-41.677-22.597-19.527 0-36.466 11.259-44.693 27.62-20.53-35.659-31.307-75.936-31.307-117.62 0-130.131 105.869-236 236-236 48.094 0 94.344 14.34 133.749 41.47 4.547 3.131 10.775 1.982 13.908-2.565 3.132-4.549 1.983-10.775-2.566-13.907-42.757-29.438-92.928-44.998-145.091-44.998-141.586 0-256 114.387-256 256 0 47.547 12.921 93.417 37.497 133.55-18.517 7.381-31.497 25.482-31.497 46.45 0 27.57 22.43 50 50 50 .073 0 .145 0 .217-.001 9.384 12.478 24.097 20.001 39.783 20.001 16.299 0 31.454-8.066 40.725-21.144 2.107.525 4.258.859 6.411 1.021 33.346 16.541 71.801 26.123 112.864 26.123 39.624 0 77.562-8.798 112.807-26.113 2.174-.16 4.334-.497 6.468-1.029 9.271 13.076 24.426 21.142 40.725 21.142 15.686 0 30.399-7.523 39.783-20.001.072.001.144.001.217.001 27.57 0 50-22.43 50-50 0-20.981-12.996-39.091-31.487-46.461 24.569-40.118 37.487-85.984 37.487-133.539 0-52.164-15.56-102.336-44.997-145.091-3.131-4.55-9.358-5.696-13.907-2.565zm-324.048 354.766c-2.583.894-4.686 2.806-5.822 5.291-4.889 10.691-15.575 17.599-27.226 17.599-10.703 0-20.674-5.912-26.022-15.429-1.786-3.179-5.136-5.102-8.715-5.102-1.506 0-3.717.53-5.263.53-16.542 0-30-13.458-30-30 0-15.888 12.409-29.042 28.338-29.951.496-.032 1.04-.048 1.662-.048 5.523 0 10-4.478 10-10 0-16.542 13.458-30 30-30 12.498 0 23.466 7.611 27.942 19.392.979 2.574 2.975 4.632 5.519 5.686 2.544 1.055 5.41 1.012 7.923-.113 20.729-9.301 39.042-22.362 54.162-38.382l-.997 3.984c-5.422 21.707-17.297 41.567-34.342 57.435-2.216 2.063-3.378 5.02-3.16 8.04s1.793 5.778 4.283 7.502c5.43 3.758 8.671 9.91 8.671 16.457 0 14.609-15.289 24.774-29.104 17.668-2.43-1.252-5.267-1.454-7.849-.559zm42.802 13.48c8.707-7.357 14.15-18.357 14.15-30.59 0-9.125-3.131-17.857-8.686-24.851 15.899-17.13 27.107-37.593 32.637-59.731l1.933-7.733c14.108-5.096 28.922-7.685 44.116-7.685s30.008 2.589 44.116 7.685l1.933 7.729c5.531 22.143 16.739 42.604 32.638 59.735-5.556 6.994-8.687 15.726-8.687 24.851 0 12.242 5.534 23.211 14.225 30.554-26.758 10.245-54.989 15.446-84.225 15.446-29.193 0-57.409-5.181-84.15-15.41zm314.15-40.59c0 16.542-13.458 30-30 30-.763 0-1.749-.139-2.89-.298l-1.056-.146c-4.055-.54-8.028 1.447-10.031 5.015-5.349 9.517-15.32 15.429-26.023 15.429-11.651 0-22.337-6.908-27.226-17.599-1.136-2.485-3.24-4.397-5.823-5.291-2.624-.909-5.456-.673-7.848.558-2.994 1.542-6.043 2.326-9.063 2.332v.119c-.013 0-.027 0-.04 0v-.119c-11.028 0-20-8.972-20-20 0-6.547 3.242-12.699 8.671-16.457 2.49-1.724 4.064-4.482 4.283-7.502.218-3.021-.944-5.977-3.16-8.04-17.045-15.867-28.92-35.728-34.343-57.438l-.997-3.98c15.12 16.02 33.433 29.081 54.162 38.382 2.512 1.128 5.378 1.168 7.923.113 2.544-1.054 4.54-3.111 5.519-5.686 4.476-11.781 15.444-19.392 27.942-19.392 16.542 0 30 13.458 30 30 0 5.522 4.477 10 10 10 16.641 0 30 13.508 30 30z"/></g></g></svg>